<svg width="192" height="193" viewBox="0 0 192 193" fill="none" xmlns="http://www.w3.org/2000/svg">
<path d="M97.2368 174.573C102.206 174.484 106.308 178.441 106.397 183.411C106.486 188.38 102.529 192.481 97.5591 192.57C92.5894 192.659 88.4889 188.702 88.3999 183.733C88.3111 178.763 92.2672 174.662 97.2368 174.573ZM67.6889 179.412C68.7921 174.565 73.6141 171.53 78.4604 172.632C83.3069 173.735 86.3427 178.559 85.2397 183.406C84.1366 188.252 79.3128 191.287 74.4663 190.184C69.62 189.081 66.5861 184.258 67.6889 179.412ZM115.931 171.963C120.735 170.688 125.665 173.548 126.941 178.352C128.216 183.156 125.355 188.084 120.551 189.36C115.747 190.635 110.819 187.776 109.543 182.972C108.268 178.168 111.127 173.239 115.931 171.963ZM48.6128 170.259C50.8437 165.818 56.2531 164.025 60.6948 166.255C65.1363 168.486 66.9291 173.896 64.6987 178.337C62.4678 182.779 57.0584 184.571 52.6167 182.34C48.175 180.109 46.3821 174.701 48.6128 170.259ZM133.458 164.956C137.818 162.567 143.288 164.165 145.676 168.524C148.064 172.883 146.467 178.353 142.108 180.742C137.749 183.13 132.279 181.532 129.891 177.173C127.503 172.814 129.1 167.344 133.458 164.956ZM32.2827 156.808C35.5117 153.03 41.1924 152.583 44.9712 155.812C48.7498 159.041 49.1961 164.723 45.9673 168.501C42.7382 172.28 37.0566 172.725 33.2778 169.497C29.4992 166.268 29.0539 160.587 32.2827 156.808ZM97.0591 155.133C101.354 155.057 104.897 158.475 104.974 162.77C105.051 167.065 101.631 170.609 97.3364 170.686C93.0421 170.762 89.4982 167.343 89.4214 163.048C89.3446 158.754 92.7645 155.21 97.0591 155.133ZM148.799 153.958C152.46 150.596 158.154 150.837 161.516 154.498C164.878 158.159 164.635 163.852 160.974 167.214C157.313 170.576 151.621 170.334 148.259 166.673C144.897 163.012 145.139 157.32 148.799 153.958ZM69.2759 157.768C70.5301 153.66 74.8776 151.347 78.9858 152.601C83.0936 153.855 85.4073 158.201 84.1538 162.309C82.8997 166.417 78.552 168.732 74.4438 167.478C70.3358 166.224 68.0217 161.876 69.2759 157.768ZM115.032 151.957C119.092 150.557 123.518 152.713 124.918 156.774C126.318 160.835 124.162 165.262 120.101 166.663C116.04 168.062 111.613 165.905 110.213 161.844C108.813 157.783 110.971 153.357 115.032 151.957ZM51.7475 146.521C54.2098 143.001 59.059 142.145 62.5786 144.607C66.0981 147.069 66.9556 151.918 64.4936 155.438C62.0313 158.957 57.1812 159.814 53.6616 157.352C50.1425 154.89 49.2854 150.04 51.7475 146.521ZM131.142 143.381C134.571 140.795 139.447 141.479 142.034 144.908C144.62 148.337 143.938 153.215 140.508 155.801C137.079 158.387 132.202 157.704 129.616 154.275C127.029 150.845 127.713 145.968 131.142 143.381ZM19.645 139.839C23.6845 136.943 29.3073 137.869 32.2036 141.909C35.0998 145.948 34.1736 151.572 30.1343 154.468C26.0947 157.364 20.4719 156.436 17.5757 152.397C14.6797 148.358 15.6058 142.736 19.645 139.839ZM161.062 139.607C163.812 135.467 169.398 134.339 173.539 137.088C177.679 139.838 178.806 145.424 176.056 149.565C173.306 153.705 167.721 154.833 163.581 152.083C159.44 149.334 158.312 143.747 161.062 139.607ZM102.814 134.029C107.03 133.207 111.114 135.959 111.936 140.175C112.757 144.391 110.005 148.475 105.79 149.296C101.573 150.118 97.4891 147.366 96.6675 143.15C95.8462 138.934 98.5981 134.851 102.814 134.029ZM72.8491 137.459C74.2458 133.398 78.6702 131.237 82.7319 132.633C86.794 134.03 88.9556 138.456 87.5591 142.518C86.1623 146.58 81.7372 148.74 77.6753 147.343C73.6133 145.947 71.4526 141.522 72.8491 137.459ZM38.5532 130.408C41.9826 127.822 46.8594 128.506 49.4458 131.935C52.0318 135.364 51.3484 140.24 47.9194 142.827C44.49 145.413 39.6123 144.73 37.0259 141.3C34.44 137.871 35.124 132.994 38.5532 130.408ZM143.814 130.249C146.276 126.729 151.125 125.872 154.645 128.333C158.165 130.796 159.022 135.646 156.56 139.166C154.098 142.685 149.248 143.542 145.728 141.08C142.209 138.617 141.352 133.768 143.814 130.249ZM120.903 125.196C124.143 122.376 129.056 122.717 131.875 125.958C134.695 129.198 134.353 134.111 131.113 136.93C127.872 139.749 122.96 139.409 120.14 136.168C117.321 132.928 117.663 128.015 120.903 125.196ZM11.436 120.339C16.0511 118.494 21.2887 120.739 23.1343 125.354C24.9795 129.969 22.7346 135.208 18.1196 137.053C13.5044 138.898 8.26688 136.653 6.42137 132.038C4.57608 127.422 6.82094 122.185 11.436 120.339ZM169.534 122.739C171.213 118.061 176.367 115.629 181.045 117.308C185.724 118.987 188.155 124.142 186.476 128.82C184.797 133.498 179.643 135.929 174.965 134.25C170.287 132.57 167.855 127.417 169.534 122.739ZM55.0659 120.623C58.3063 117.803 63.219 118.145 66.0386 121.385C68.8578 124.626 68.5169 129.538 65.2768 132.358C62.0363 135.177 57.1237 134.836 54.3042 131.595C51.4848 128.355 51.8256 123.442 55.0659 120.623ZM30.9829 111.006C35.0436 109.606 39.4703 111.763 40.8706 115.824C42.2706 119.884 40.1138 124.311 36.0532 125.711C31.9924 127.111 27.5646 124.955 26.1645 120.894C24.7647 116.833 26.9222 112.406 30.9829 111.006ZM77.6909 113.872C79.7374 109.956 84.571 108.44 88.4868 110.487C92.4023 112.533 93.9178 117.366 91.8716 121.282C89.825 125.197 84.9913 126.713 81.0757 124.667C77.1605 122.62 75.6452 117.787 77.6909 113.872ZM104.473 109.814C108.203 107.446 113.146 108.551 115.514 112.281C117.882 116.011 116.777 120.955 113.047 123.323C109.317 125.69 104.374 124.586 102.006 120.856C99.6386 117.126 100.743 112.182 104.473 109.814ZM151.808 113.841C153.062 109.733 157.409 107.42 161.517 108.674C165.625 109.929 167.939 114.276 166.685 118.384C165.431 122.492 161.083 124.805 156.975 123.551C152.867 122.297 150.554 117.949 151.808 113.841ZM132.151 108.502C133.547 104.44 137.974 102.279 142.036 103.675C146.097 105.072 148.257 109.497 146.861 113.559C145.464 117.621 141.039 119.782 136.977 118.385C132.916 116.989 130.755 112.564 132.151 108.502ZM8.1323 99.4419C13.0547 98.7549 17.6029 102.188 18.2905 107.11C18.9777 112.033 15.5441 116.582 10.6216 117.269C5.69882 117.956 1.15068 114.522 0.463358 109.599C-0.223534 104.677 3.20984 100.129 8.1323 99.4419ZM173.723 104.333C174.234 99.3895 178.657 95.7954 183.601 96.3062C188.545 96.8172 192.138 101.239 191.627 106.183C191.117 111.127 186.696 114.721 181.751 114.21C176.807 113.7 173.212 109.278 173.723 104.333ZM48.0845 97.1499C52.3003 96.3286 56.3838 99.0806 57.2055 103.296C58.0271 107.512 55.2752 111.597 51.0591 112.418C46.8431 113.24 42.7596 110.488 41.938 106.272C41.1164 102.056 43.8683 97.9715 48.0845 97.1499ZM29.7788 90.2144C34.0735 90.1376 37.617 93.5574 37.6938 97.8521C37.7705 102.147 34.3517 105.69 30.0571 105.767C25.7625 105.844 22.2178 102.424 22.1411 98.1294C22.0647 93.835 25.4844 90.2913 29.7788 90.2144ZM71.5825 89.3208C75.9969 89.1352 79.726 92.5637 79.9116 96.978C80.0971 101.392 76.6695 105.121 72.2553 105.307C67.8411 105.493 64.112 102.064 63.9262 97.6499C63.7409 93.2359 67.1685 89.5067 71.5825 89.3208ZM95.4057 86.854C100.376 86.854 104.406 90.8834 104.406 95.854C104.405 100.824 100.376 104.854 95.4057 104.854C90.4356 104.854 86.406 100.824 86.4057 95.854C86.4057 90.8836 90.4354 86.8543 95.4057 86.854ZM161.977 87.853C166.272 87.7763 169.816 91.1959 169.893 95.4907C169.969 99.7852 166.55 103.329 162.255 103.406C157.961 103.482 154.417 100.063 154.34 95.7681C154.264 91.4735 157.683 87.9301 161.977 87.853ZM119.541 87.3052C123.955 87.1196 127.684 90.548 127.87 94.9624C128.055 99.3764 124.627 103.106 120.213 103.292C115.799 103.477 112.07 100.048 111.884 95.6343C111.699 91.22 115.126 87.4909 119.541 87.3052ZM0.0483185 86.3882C0.559191 81.4441 4.9812 77.8502 9.92527 78.3608C14.8694 78.8717 18.4642 83.2937 17.9536 88.2378C17.4425 93.1817 13.0197 96.7758 8.07566 96.2651C3.13173 95.7541 -0.46226 91.3321 0.0483185 86.3882ZM139.693 79.2983C143.909 78.477 147.992 81.2288 148.814 85.4448C149.636 89.6609 146.884 93.7452 142.667 94.5669C138.452 95.3882 134.368 92.6362 133.546 88.4204C132.725 84.2043 135.477 80.1199 139.693 79.2983ZM181.055 75.3022C185.978 74.6151 190.526 78.0495 191.213 82.9722C191.9 87.8947 188.467 92.442 183.544 93.1294C178.622 93.8164 174.074 90.383 173.386 85.4605C172.699 80.538 176.133 75.9897 181.055 75.3022ZM43.8901 78.1577C45.2867 74.0956 49.7128 71.934 53.7749 73.3306C57.8365 74.7273 59.9963 79.1525 58.6001 83.2144C57.2035 87.2765 52.7784 89.4381 48.7163 88.0415C44.6545 86.6448 42.4937 82.2197 43.8901 78.1577ZM25.3491 75.2358C26.6035 71.1279 30.951 68.8147 35.0591 70.0688C39.1673 71.323 41.4812 75.6705 40.227 79.7788C38.9727 83.8867 34.626 86.1996 30.518 84.9458C26.4098 83.6916 24.0949 79.3441 25.3491 75.2358ZM78.7485 69.2896C82.4784 66.9221 87.4215 68.0258 89.7895 71.7554C92.1574 75.4855 91.0529 80.4295 87.3227 82.7974C83.5927 85.1652 78.6497 84.0614 76.2817 80.3315C73.9138 76.6014 75.0183 71.6575 78.7485 69.2896ZM155.981 67.9087C160.042 66.5086 164.469 68.6652 165.87 72.7261C167.269 76.7868 165.112 81.2137 161.051 82.6138C156.991 84.0136 152.564 81.8569 151.164 77.7964C149.764 73.7357 151.92 69.309 155.981 67.9087ZM99.9243 71.3306C101.971 67.4148 106.804 65.8993 110.72 67.9458C114.636 69.9923 116.151 74.8252 114.105 78.7407C112.058 82.6565 107.225 84.172 103.309 82.1255C99.3934 80.0791 97.878 75.2463 99.9243 71.3306ZM5.20066 63.7515C6.87994 59.0734 12.0332 56.6428 16.7114 58.3218C21.3895 60.001 23.822 65.1544 22.143 69.8325C20.4638 74.5105 15.3094 76.942 10.6313 75.2632C5.95311 73.5839 3.52158 68.4297 5.20066 63.7515ZM125.475 59.3589C128.715 56.5396 133.628 56.8804 136.448 60.1206C139.267 63.3611 138.926 68.2746 135.686 71.0942C132.446 73.9135 127.533 73.5717 124.713 70.3315C121.894 67.0912 122.235 62.1785 125.475 59.3589ZM173.557 55.5181C178.172 53.6728 183.41 55.9187 185.255 60.5337C187.101 65.1489 184.856 70.3865 180.241 72.2319C175.626 74.0771 170.388 71.8321 168.542 67.2173C166.697 62.6021 168.942 57.3636 173.557 55.5181ZM59.6382 54.7866C62.8786 51.967 67.7922 52.3079 70.6118 55.5483C73.431 58.7888 73.0893 63.7015 69.8491 66.521C66.6087 69.3403 61.696 68.9993 58.8764 65.7593C56.0572 62.5189 56.3981 57.6062 59.6382 54.7866ZM35.4751 54.4546C37.9375 50.9352 42.7866 50.0783 46.3061 52.5405C49.8257 55.0029 50.6825 59.852 48.2202 63.3716C45.758 66.8909 40.9097 67.7483 37.3901 65.2866C33.8705 62.8243 33.0128 57.9742 35.4751 54.4546ZM144.115 50.7935C147.544 48.2071 152.422 48.8897 155.008 52.3188C157.594 55.7483 156.911 60.626 153.482 63.2124C150.052 65.7987 145.176 65.1144 142.589 61.6851C140.003 58.2558 140.686 53.38 144.115 50.7935ZM103.193 49.1987C104.59 45.1369 109.015 42.9761 113.077 44.3726C117.139 45.7691 119.299 50.1952 117.903 54.2573C116.506 58.3187 112.082 60.4786 108.02 59.0825C103.958 57.686 101.796 53.2608 103.193 49.1987ZM84.9624 42.4204C89.1785 41.5988 93.2628 44.3507 94.0845 48.5669C94.9058 52.7828 92.1538 56.8663 87.938 57.688C83.7218 58.5096 79.6375 55.7577 78.8159 51.5415C77.9945 47.3255 80.7464 43.242 84.9624 42.4204ZM15.6206 43.0063C18.3705 38.866 23.9557 37.7382 28.0962 40.4878C32.2365 43.2378 33.3645 48.8239 30.6147 52.9644C27.8648 57.1046 22.2786 58.2325 18.1382 55.4829C13.9978 52.7329 12.8708 47.1468 15.6206 43.0063ZM161.542 38.103C165.582 35.2069 171.205 36.1349 174.101 40.1743C176.997 44.2138 176.071 49.8357 172.032 52.7319C167.992 55.6281 162.369 54.7019 159.473 50.6626C156.577 46.6231 157.503 40.9993 161.542 38.103ZM51.5268 37.8188C54.9562 35.2328 59.833 35.916 62.4194 39.3452C65.0058 42.7745 64.3221 47.6512 60.893 50.2378C57.4637 52.8241 52.587 52.1415 50.0005 48.7124C47.414 45.283 48.0974 40.4053 51.5268 37.8188ZM127.541 38.1821C130.003 34.6626 134.853 33.8052 138.373 36.2671C141.892 38.7295 142.749 43.5796 140.287 47.0991C137.824 50.6185 132.975 51.4754 129.456 49.0132C125.936 46.5509 125.079 41.7017 127.541 38.1821ZM71.9331 26.9575C75.9938 25.5577 80.4207 27.7152 81.8208 31.7759C83.2208 35.8367 81.0642 40.2634 77.0034 41.6636C72.9427 43.0636 68.516 40.9068 67.1157 36.8462C65.7157 32.7855 67.8724 28.3577 71.9331 26.9575ZM107.881 31.3101C109.136 27.202 113.483 24.888 117.591 26.1421C121.699 27.3965 124.012 31.7439 122.758 35.8521C121.504 39.96 117.157 42.273 113.049 41.019C108.941 39.7649 106.627 35.4182 107.881 31.3101ZM30.7026 25.3569C34.3635 21.9953 40.0554 22.2374 43.4175 25.898C46.7794 29.5589 46.5381 35.2517 42.8774 38.6138C39.2165 41.9757 33.5227 41.7343 30.1606 38.0737C26.7987 34.4128 27.0418 28.719 30.7026 25.3569ZM145.709 24.0698C148.938 20.2911 154.62 19.8458 158.399 23.0747C162.178 26.3037 162.623 31.9844 159.394 35.7632C156.165 39.5417 150.484 39.988 146.706 36.7593C142.927 33.5302 142.481 27.8486 145.709 24.0698ZM94.6977 22.9341C98.9923 22.8576 102.536 26.2772 102.613 30.5718C102.69 34.8666 99.2699 38.4101 94.9751 38.4868C90.6805 38.5635 87.137 35.1446 87.06 30.8501C86.9833 26.5553 90.403 23.0108 94.6977 22.9341ZM49.5688 11.8296C53.9279 9.44151 59.3972 11.0392 61.7856 15.398C64.1738 19.7571 62.5772 25.2274 58.2182 27.6157C53.8592 30.0038 48.3888 28.4062 46.0005 24.0474C43.6124 19.6883 45.2099 14.2179 49.5688 11.8296ZM126.978 14.2339C129.209 9.7922 134.618 8.00022 139.06 10.231C143.502 12.4618 145.295 17.8703 143.064 22.312C140.833 26.7536 135.424 28.5466 130.982 26.3159C126.54 24.0851 124.748 18.6755 126.978 14.2339ZM71.1255 3.21143C75.9294 1.93593 80.8575 4.79535 82.1333 9.59912C83.4088 14.403 80.5492 19.332 75.7456 20.6079C70.9416 21.8835 66.0115 19.0232 64.7358 14.2192C63.4603 9.41524 66.3215 4.4871 71.1255 3.21143ZM106.437 9.16553C107.54 4.31901 112.364 1.28426 117.21 2.38721C122.057 3.49046 125.091 8.31332 123.988 13.1597C122.885 18.0059 118.063 21.0415 113.216 19.939C108.37 18.8359 105.334 14.012 106.437 9.16553ZM94.1177 0.00146605C99.0873 -0.0873315 103.188 3.8688 103.277 8.83838C103.366 13.808 99.4095 17.9095 94.4399 17.9985C89.4702 18.0873 85.3687 14.1303 85.2798 9.16065C85.191 4.19097 89.148 0.0904178 94.1177 0.00146605Z" fill="#272727"/>
</svg>
